<svg preserveAspectRatio="xMidYMid meet" data-bbox="20.001 22 159.999 156" viewBox="20.001 22 159.999 156" height="200" width="200" xmlns="http://www.w3.org/2000/svg" data-type="color" role="presentation" aria-hidden="true">
    <g>
        <path d="M173.419 77.277c-.042.313-.154.56-.294.887-.187.434-.813.863-1.257.966a2.507 2.507 0 0 1-1.117 0 1.764 1.764 0 0 1-.612-.285 2.158 2.158 0 0 1-.481-.467 1.544 1.544 0 0 1-.248-.373 1.91 1.91 0 0 1-.201-.476c-.206-.737.019-1.498.538-2.044.136-.14.29-.247.449-.341.033-.023.061-.047.093-.065.477-.308 1.08-.336 1.622-.21.215.047.425.149.622.289.126.089.248.191.351.303.112.117.21.243.285.369.15.243.234.504.248.784.049.219.049.443.002.663z" fill="#65B8AB" data-color="1"></path>
        <path d="M169.1 80.193c-.042.313-.154.56-.299.887a1.518 1.518 0 0 1-.36.471c-.271.238-.622.429-.897.495a2.507 2.507 0 0 1-1.117 0c-.439-.098-.823-.406-1.094-.751a1.544 1.544 0 0 1-.248-.373 2.375 2.375 0 0 1-.201-.476c-.201-.737.019-1.498.542-2.044l.07-.07a2.16 2.16 0 0 1 .374-.271c.005-.005.005-.005.009-.005.028-.023.061-.042.084-.061.481-.308 1.084-.336 1.622-.21.5.112 1 .527 1.257.961.154.243.238.504.252.784.048.22.048.444.006.663z" fill="#65B8AB" data-color="1"></path>
        <path d="M176.307 86.461c.07.91-.505 1.829-1.351 2.175-.771.313-1.72.126-2.323-.439a1.683 1.683 0 0 1-.299-.35c-1.061-1.549.43-3.808 2.323-3.341.421.103.795.341 1.084.663.107.117.196.243.276.383.126.21.215.439.262.681.014.074.024.149.028.228z" fill="#65B8AB" data-color="1"></path>
        <path d="M170.689 93.611c.005.929-.701 1.965-1.585 2.165a2.53 2.53 0 0 1-1.122 0c-.439-.103-.823-.406-1.089-.756a1.448 1.448 0 0 1-.252-.369 2.299 2.299 0 0 1-.201-.481 1.307 1.307 0 0 1-.042-.191c-.028-.159-.037-.317-.028-.476.033-.504.248-.994.612-1.372.136-.14.285-.252.449-.345.028-.019.061-.042.093-.061.477-.308 1.08-.336 1.617-.215.505.117 1.005.532 1.257.966.131.21.215.425.238.663a.487.487 0 0 1 .014.117c.03.112.039.238.039.355z" fill="#65B8AB" data-color="1"></path>
        <path d="M175.429 94.521a2.507 2.507 0 0 1-1.117 0c-.365-.079-.692-.303-.935-.574a1.444 1.444 0 0 1-.159-.177 2.067 2.067 0 0 1-.145-.182 2.53 2.53 0 0 1-.107-.191 2.008 2.008 0 0 1-.196-.476c-.206-.737.019-1.498.537-2.044.136-.14.29-.247.449-.341.033-.023.061-.047.093-.065.477-.308 1.08-.336 1.622-.21.276.061.556.219.79.42a2.178 2.178 0 0 1 .468.541c.15.243.234.504.248.784.223 1.003-.543 2.286-1.548 2.515z" fill="#65B8AB" data-color="1"></path>
        <path d="M173.377 93.947c-.234.294-.453.602-.664.919.238.709.458 1.419.622 2.152.486 2.189.416 4.438.065 6.641-.047.294-.5.168-.453-.126.458-2.842.313-5.633-.631-8.363a35.67 35.67 0 0 0-.561-1.475c-.355-.042-.71-.07-1.066-.084a15.582 15.582 0 0 0-4.291.369c-.028-.159-.037-.317-.028-.476a15.96 15.96 0 0 1 4.267-.364c.309.019.612.042.921.075-.107-.009-.477-1.12-.538-1.265-.173-.392-.341-.784-.514-1.181a24.954 24.954 0 0 1-.991-2.623c-.617-1.927-.916-3.934-.58-5.913a23.12 23.12 0 0 0-.495-.681 22.457 22.457 0 0 0-2.945-3.22 2.16 2.16 0 0 1 .374-.271c.005-.005.005-.005.009-.005 1.047.952 2 2.002 2.861 3.136.117.14.22.285.327.429.037-.163.07-.322.117-.481.243-.798.57-1.559.954-2.296.673-1.288 1.519-2.492 2.374-3.664a.093.093 0 0 1 .019-.023c.126.089.248.191.351.303-.832 1.153-1.673 2.338-2.332 3.608-.495.938-.888 1.918-1.112 2.959-.57 2.66.201 5.334 1.187 7.798a18.256 18.256 0 0 1 1.711-1.979 17.726 17.726 0 0 1 3.407-2.679c.107.117.196.243.276.383a17.334 17.334 0 0 0-3.384 2.646 16.87 16.87 0 0 0-1.804 2.128c.556 1.339 1.169 2.66 1.683 4.018.178-.261.365-.513.561-.756a13.37 13.37 0 0 1 3.188-2.907c.126.107.243.224.337.35-1.236.78-2.32 1.76-3.222 2.918z"></path>
        <path d="M180 122.421c0 1.772-7.004 3.208-15.644 3.208s-15.644-1.436-15.644-3.208c0-1.772 7.004-3.208 15.644-3.208S180 120.649 180 122.421z"></path>
        <path fill="#2A3D47" d="M180 120.583v1.838h-31.289v-1.838H180z" data-color="2"></path>
        <path fill="#A65953" d="M180 120.583c0 1.772-7.004 3.208-15.644 3.208s-15.644-1.436-15.644-3.208c0-1.772 7.004-3.208 15.644-3.208S180 118.811 180 120.583z" data-color="3"></path>
        <path d="m149.268 159.96-.021-.001a.232.232 0 0 1-.212-.253l3.155-35.935a.24.24 0 0 1 .253-.212.232.232 0 0 1 .212.253l-3.155 35.935a.233.233 0 0 1-.232.213z"></path>
        <path d="M179.591 159.96a.233.233 0 0 1-.232-.213l-3.155-35.935a.233.233 0 1 1 .465-.041l3.155 35.935a.233.233 0 0 1-.212.253l-.021.001z"></path>
        <path d="M168.273 164.394c-.126 0-.23-.1-.234-.227l-1.052-38.619a.234.234 0 0 1 .227-.24h.006c.126 0 .23.1.234.227l1.052 38.619a.234.234 0 0 1-.227.24h-.006z"></path>
        <path fill="#2A3D47" d="M163.341 120.291h-9.459l-1.074-14.234h11.607l-1.074 14.234z" data-color="2"></path>
        <path d="M164.415 106.174c0 .741-2.598 1.342-5.804 1.342-3.205 0-5.804-.601-5.804-1.342 0-.741 2.598-1.342 5.804-1.342 3.205 0 5.804.601 5.804 1.342z" fill="#2A3D47" data-color="2"></path>
        <path d="M163.341 120.291c0 .604-2.117 1.093-4.729 1.093s-4.73-.49-4.73-1.093c0-.604 2.117-1.093 4.73-1.093 2.611 0 4.729.489 4.729 1.093z" fill="#2A3D47" data-color="2"></path>
        <path d="M158.727 107.516h-.118c-2.921-.02-5.21-.701-5.306-.73a.232.232 0 0 1-.156-.291.234.234 0 0 1 .291-.156c.023.007 2.324.69 5.174.71 2.839.029 5.143-.701 5.166-.709a.234.234 0 0 1 .293.151.235.235 0 0 1-.151.294c-.094.03-2.325.731-5.193.731z" opacity=".46"></path>
        <path d="M163.576 118.6c-2.315 0-4.198-2.434-4.198-5.425 0-2.992 1.883-5.425 4.198-5.425 2.315 0 4.198 2.434 4.198 5.425 0 2.991-1.883 5.425-4.198 5.425zm0-9.918c-1.799 0-3.263 2.015-3.263 4.492s1.464 4.492 3.263 4.492 3.263-2.015 3.263-4.492-1.463-4.492-3.263-4.492z" fill="#2A3D47" data-color="2"></path>
        <path d="M157.908 105.604s1.1-3.585.719-5.532c-.38-1.947-1.297-2.469-.72-4.938s3.859-4.653 3.859-4.653-1.569 4.083-1.189 5.555c.38 1.472 1.296 2.949.048 5.555-1.019 2.129-2.717 4.013-2.717 4.013z" fill="#FFFFFF" data-color="4"></path>
        <path d="M160.933 113.554c0 1.579-1.04 2.858-2.322 2.858-1.283 0-2.322-1.28-2.322-2.858 0-1.579 1.04-2.858 2.322-2.858 1.282-.001 2.322 1.279 2.322 2.858z" fill="#FFFFFF" data-color="4"></path>
        <path d="m172.024 102.018-1.022 17.208a1.237 1.237 0 0 0 1.235 1.309h1.975c.71 0 1.275-.596 1.235-1.304l-.954-17.208a1.236 1.236 0 0 0-2.469-.005z" fill="#FFFFFF" data-color="4"></path>
        <path d="M157.908 105.604s1.1-3.585.719-5.532c-.38-1.947-1.297-2.469-.72-4.938s3.859-4.653 3.859-4.653-1.569 4.083-1.189 5.555c.38 1.472 1.296 2.949.048 5.555-1.019 2.129-2.717 4.013-2.717 4.013z" opacity=".15"></path>
        <path d="m172.024 102.018-1.022 17.208a1.237 1.237 0 0 0 1.235 1.309h1.975c.71 0 1.275-.596 1.235-1.304l-.954-17.208a1.236 1.236 0 0 0-2.469-.005z" opacity=".15"></path>
        <path d="m143.752 177.324-.382.049c-5.405.672-10.833.644-16.254.616l-93.248-.478c-2.524-.013-5.092-.037-7.501-1.243-2.408-1.206-4.676-3.798-5.581-7.567-3.174-13.22 9.68-15.662 14.713-15.673l89.688-.189c5.939-.013 11.882-.025 17.813.49 2.535.22 14.449 2.891 14.449 12.089-.001 9.198-11.296 11.587-13.697 11.906z" fill="#FFD9BF" data-color="5"></path>
        <path d="m143.752 177.324-.382.049c-5.405.672-10.833.644-16.254.616l-93.248-.478c-2.524-.013-5.092-.037-7.501-1.243-2.408-1.206-4.676-3.798-5.581-7.567-3.174-13.22 9.68-15.662 14.713-15.673l89.688-.189c5.939-.013 11.882-.025 17.813.49 2.535.22 14.449 2.891 14.449 12.089-.001 9.198-11.296 11.587-13.697 11.906z" opacity=".13"></path>
        <path d="M36.372 160.814c-.184 2.222-3.536 2.411-4.191.384-.368-1.138-2.174-.652-1.803.496 1.322 4.086 7.506 3.431 7.864-.88.099-1.197-1.771-1.191-1.87 0z" fill="#FFFFFF" data-color="4"></path>
        <path d="M149.573 168.513c-.184 2.222-3.536 2.411-4.191.384-.368-1.139-2.174-.652-1.803.496 1.322 4.086 7.506 3.431 7.864-.88.099-1.197-1.771-1.19-1.87 0z" fill="#FFFFFF" data-color="4"></path>
        <path d="M103.187 171.578c.788-2.086 4.063-1.348 4.136.78.041 1.196 1.911 1.223 1.87.017-.147-4.291-6.274-5.357-7.804-1.309-.425 1.124 1.375 1.63 1.798.512z" fill="#FFFFFF" data-color="4"></path>
        <path d="M80.501 159.095c-1.975 1.039-3.937-1.681-2.578-3.322.764-.922-.618-2.181-1.388-1.251-2.74 3.309 1.137 8.164 4.971 6.147 1.065-.559.054-2.131-1.005-1.574z" fill="#FFFFFF" data-color="4"></path>
        <path d="M54.111 169.361c2.031-.927 3.836 1.899 2.387 3.461-.814.878.495 2.212 1.316 1.327 2.922-3.15-.677-8.215-4.618-6.416-1.094.5-.173 2.125.915 1.628z" fill="#FFFFFF" data-color="4"></path>
        <path d="M126.418 156.853c1.731 1.408-.007 4.275-2.052 3.669-1.149-.34-1.767 1.422-.609 1.765 4.123 1.221 7.078-4.243 3.717-6.975-.932-.758-1.984.786-1.056 1.541z" fill="#FFFFFF" data-color="4"></path>
        <path fill="#A65953" d="m135.947 134.37 2.804 25.357h-2.337l-5.92-25.357h5.453z" data-color="3"></path>
        <path d="M58.539 60.72c6.731-.088-4.324-3.697 2.407-3.785l36.564-.476c7.347-.096 14.754-.474 22.096-.115 4.45.218 11.407.269 14.821 3.625 5.566 5.471 5.609 30.335 5.609 30.335s6.337 0 7.272 11.434c.477 5.833-.102 16.167-.525 22.004-.182 2.512-.145 5.111-.939 7.531-.925 2.818-2.716 5.362-5.406 6.076-6.96 1.848-115.735-.094-115.735-.094s-2.103-9.148 5.141-21.982c7.245-12.834 8.18-30.939 7.245-39.037-.934-8.1 21.45-15.516 21.45-15.516z" fill="#FFD9BF" data-color="5"></path>
        <path d="m126.736 57.367-20.194-.271-36.564-.491c-7.347-.099-14.754-.49-22.096-.119-4.45.225-11.407.278-14.821 3.74-5.566 5.645-5.609 31.3-5.609 31.3s-6.337 0-7.272 11.798c-.477 6.018.102 16.681.525 22.704.182 2.592.145 5.273.939 7.771.925 2.908 2.716 3.693 5.406 4.43 6.405 1.754 103.952.213 113.769-.786 2.133-1.187 4.266-3.47 4.32-4.877.113-2.963-2.584-6.299-7.495-15.276-7.245-13.242-8.18-31.923-7.245-40.279.934-8.358-3.663-19.644-3.663-19.644z" fill="#FFD9BF" data-color="5"></path>
        <path d="M134.068 116.726H36.334a.23.23 0 0 1-.226-.233.23.23 0 0 1 .226-.233h97.733a.23.23 0 0 1 .226.233c0 .129-.1.233-.225.233z" opacity=".46"></path>
        <path d="M134.623 137.373a.234.234 0 0 1-.234-.233c0-.262-.03-26.232.432-34.857.473-8.817 4.663-9.352 4.841-9.37a.232.232 0 0 1 .257.208.234.234 0 0 1-.208.256c-.062.008-3.975.574-4.423 8.931-.462 8.613-.432 34.57-.432 34.831a.232.232 0 0 1-.233.234z" opacity=".46"></path>
        <path d="M35.717 137.373a.234.234 0 0 0 .234-.233c0-.262.03-26.232-.432-34.857-.473-8.817-4.663-9.352-4.841-9.37a.232.232 0 0 0-.257.208.234.234 0 0 0 .208.256c.062.008 3.975.574 4.423 8.931.462 8.613.432 34.57.432 34.831a.232.232 0 0 0 .233.234z" opacity=".46"></path>
        <path d="M98.769 161.425c-3.244 2.371-8.479 9.735-10.662 12.125-1.089 1.185-2.085 1.269-2.748.798a1.611 1.611 0 0 1-.355-.341c-.421-.541-.584-1.377-.346-2.193.584-2.016 5.342-13.861 5.17-14.57-.033-.135-.351-.537-.841-1.097-2.052-2.343-7.142-7.444-7.142-7.444l6.483-7.178s4.244 5.306 7.034 8.377c.729.803 1.355 1.451 1.786 1.811 2.071 1.75 4.151 3.44 4.347 4.592.191 1.149.523 2.754-2.726 5.12z" fill="#FFA794" data-color="6"></path>
        <path d="m72.886 43.676 11.279 2.217 9.676-2.217s-1.675 6.961-1.909 6.961c-.234 0-8.725 3.772-9.66 3.422s-9.386-10.383-9.386-10.383z" fill="#2A3D47" data-color="2"></path>
        <path d="M49.767 139.855c-.467.665-1.042 1.192-1.827 1.305a1.682 1.682 0 0 1-.491-.001c-.803-.118-1.466-.867-1.431-2.473.076-3.235 2.476-8.112 3.847-11.978 1.342-3.784 2.249-7.933 3.187-8.629.938-.697 3.61-.482 6.32-.316 2.705.168 13.423-1.27 13.423-1.27l-.285 9.661s-10.982.442-11.683.657c-2.884.888-5.121 4.012-6.827 6.312a60.224 60.224 0 0 0-2.759 4.072c-.456.735-.877 1.811-1.474 2.66z" fill="#FFFFFF" data-color="4"></path>
        <path d="M61.417 98.476c-.69.04-1.696.802-2.272 1.126-1.707.961-3.329 2.108-4.734 3.477-3.542 3.449-4.536 7.64-2.674 12.274 1.489 3.706 4.042 6.862 6.438 10.01 3.528 4.634 7.417 8.983 11.449 13.183 4.06 4.229 8.271 8.308 12.466 12.402a290.19 290.19 0 0 0 3.661 3.528s2.904-2.354 6.339-5.328c3.435-2.974 4.908-6.689 4.908-6.689l-24.383-29.985 22.27-13.534s-33.457-.465-33.468-.464z" fill="#A65953" data-color="3"></path>
        <path d="M103.073 98.476s19.878.725 25.084 8.311c3.739 5.449 2.765 15.721-14.061 17.121-16.827 1.4-37.159 1.633-37.159 1.633l-12.503-19.484 38.639-7.581z" fill="#A65953" data-color="3"></path>
        <path d="M113.353 104.194c-.158.029-13.521 2.432-21.676 4.052l-21.336 2.137c-.011-.001-.02.003-.031.003l-.081.008.013.015c-.027.01-.056.007-.079.027a.235.235 0 0 0-.023.33l1.429 1.635c.006.005.009.012.015.017l11.286 12.914c.046.053.111.08.176.08a.234.234 0 0 0 .176-.387l-11.037-12.628c2.039-.345 11.101-1.893 15.836-2.921 2.833-.615 7.752-1.56 12.512-2.451l11.707 1.208.024.001a.233.233 0 0 0 .024-.465l-10.138-1.046c5.922-1.103 11.186-2.049 11.284-2.067a.234.234 0 0 0-.081-.462z" opacity=".46"></path>
        <path d="M50.762 75.256s-2.512 7.409-2.22 12.717c.257 4.666 2.921 8.167 13.321 11.317 10.4 3.15 11.335-13.651 11.335-13.651s-3.155-18.551-4.09-18.084c-.935.467-18.346 7.701-18.346 7.701z" fill="#65B8AB" data-color="1"></path>
        <path d="M66.638 89.857c-1.715-1.683-3.451-3.244-5.784-3.992-2.689-.863-5.612-1.172-8.385-1.68-.294-.054-.42.396-.124.45 2.523.462 5.109.805 7.593 1.452 2.618.682 4.482 2.246 6.37 4.1.214.211.545-.119.33-.33z" opacity=".46"></path>
        <path d="M113.394 66.972s6.438 15.692 6.146 21.001c-.257 4.666-2.921 8.167-13.321 11.317-10.4 3.15-11.335-13.651-11.335-13.651s3.155-18.551 4.09-18.084c.935.467 14.42-.583 14.42-.583z" fill="#65B8AB" data-color="1"></path>
        <path d="M68.991 48.771s-4.908 1.945-8.881 5.289c-3.973 3.345-9.348 21.196-9.348 21.196l46.974 20.418 7.829-7.117 7.829-21.584s-3.856-10.773-8.998-15.44c-3.602-3.269-12.971-3.422-12.971-3.422l-22.434.66z" fill="#65B8AB" data-color="1"></path>
        <path d="M107.329 65.35a.234.234 0 0 0-.223-.41l-4.189 2.258c.153-.813.345-1.498.586-1.989 1.007-2.048 3.791-7.161 3.819-7.212a.234.234 0 0 0-.411-.223c-.028.052-2.817 5.173-3.828 7.23-1.876 3.815-.959 18.025-.919 18.628a.234.234 0 0 0 .233.218h.016a.234.234 0 0 0 .218-.248c-.008-.122-.666-10.321.186-15.818l4.512-2.434z" opacity=".46"></path>
        <path d="M63.343 83.849h-.018a.233.233 0 0 1-.215-.251c.01-.128.948-12.82-.873-16.523-.998-2.029-4.815-6.792-4.854-6.84a.233.233 0 0 1 .036-.328.236.236 0 0 1 .329.036c.158.197 3.888 4.852 4.908 6.927 1.876 3.816.959 16.237.919 16.764a.232.232 0 0 1-.232.215z" opacity=".46"></path>
        <path d="M91.261 27.619c-.498-1.618-1.797-2.136-3.509-2.022a.265.265 0 0 0-.118.036c-.948-1.826-3.257-3.241-5.346-3.571-.904-.143-4.433-.158-3.995 1.318-1.056.238-2.108.933-2.89 1.491-.573.409-1.786 1.41-1.563 2.239-.011.299.092.6.311.872.05.062.105.119.165.172-.231.406-.77.842-.902 1.192-.361.954.273 1.687 1.014 2.274-.209.993-.199 2.023.506 2.87.966 1.161 2.495.876 3.854.588a23.516 23.516 0 0 0 3.012-.85c1.064-.379 2.146-1.033 3.316-1.026.681.004.943.267 1.54.364.335.054.763-.054 1.082-.086.861-.086 1.82-.287 2.657-.057-.032.119-.057.239-.092.358-.086.29.294 1.843.379 1.553.569-1.941 1.524-4.647.579-7.715z" fill="#2F4149" data-color="7"></path>
        <path fill="#FFA794" d="M87.608 39.699v12.017l-2.132 1.75-5.88-1.895v-9.334l8.012-2.538z" data-color="6"></path>
        <path d="M86.997 43.446a6.316 6.316 0 0 1-.524.439c.142-.173.214-.28.214-.28l-7.086-.336-.005.005v2.856c.605.051 1.358.047 2.279-.056a8.231 8.231 0 0 0 1.938-.443h.005c.529-.117 2.172-.565 3.541-1.857.086-.079.168-.163.249-.252v-.77a4.974 4.974 0 0 1-.611.694z" opacity=".58"></path>
        <path d="M89.355 33.633s.497-.783 1.367-.438c.921.366.604 1.882.438 2.551-.209.844-.587 1.688-1.285 2.291-.186.161-2.221 1.271-2.269.963-.031-.204 1.749-5.367 1.749-5.367z" fill="#FFA794" data-color="6"></path>
        <path d="M76.852 33.808s-.497-.783-1.367-.438c-.922.366-.604 1.882-.438 2.551.209.844.587 1.688 1.285 2.291.186.161 2.221 1.271 2.269.963.031-.204-1.749-5.367-1.749-5.367z" fill="#FFA794" data-color="6"></path>
        <path d="M89.628 36.093c-.112 1.057-.306 2.949-.597 3.976-.775 2.737-2.637 5.276-6.422 4.899-1.306-.13-2.528-.96-3.403-1.933-.811-.9-1.25-2.032-1.718-3.123-1.103-2.574-1.362-4.812-1.196-7.588.06-.99.658-1.632 1.277-2.4a33.669 33.669 0 0 1 2.104-2.37c.191-.196.393-.395.657-.491.311-.113.657-.065.984-.011 2.314.386 3.144-.489 5.297.39.443.181 2.338 1.905 2.609 2.28.232.321.293.722.34 1.108.212 1.74.254 3.513.068 5.263z" fill="#FFA794" data-color="6"></path>
        <path d="M90.641 31.212c-.184-1.235-1.037-2.241-1.946-3.123-2.067-2.005-5.159-2.308-7.909-1.446-2.798.876-4.644 3.223-5.311 5.844a.219.219 0 0 0 0 .108c-.001.007-.005.012-.005.019l.001.023c-.001.005-.004.008-.004.013-.08.893.626 2.201 1.714 1.417.732-.528 1.207-1.307 1.586-2.111.27.392.755.521 1.276.386.642-.165 1.115-.386 1.628-.78.502-.386.964-.82 1.51-1.156 1.135-.697 2.599-1.204 3.997-1.152.37 1.79 1.208 5.222 2.783 4.685 1.033-.351.788-2 .68-2.727z" fill="#2F4149" data-color="7"></path>
        <path d="m77.015 48.188 3.428-1.604h6.232l4.752 1.993s-2.22 5.484-2.999 5.484c-.779 0-6.816-.447-8.063-.593-1.246-.146-4.168-.768-4.168-1.313 0-.545.818-3.967.818-3.967z" fill="#FFA794" data-color="6"></path>
        <path d="M80.84 37.033a.412.412 0 0 0-.149-.105c-.578-.231-.485.871-.409 1.133.056.194.2.409.4.385.153-.018.252-.17.303-.315.093-.265.095-.561.006-.827a.731.731 0 0 0-.151-.271z" opacity=".71"></path>
        <path d="M85.747 37.029a.306.306 0 0 1 .123-.124c.173-.087.376.072.454.249.128.293.139 1.06-.196 1.251-.131.075-.307.015-.403-.101-.096-.116-.127-.272-.136-.422-.015-.248.02-.498.104-.732a.76.76 0 0 1 .054-.121z" opacity=".71"></path>
        <path d="M83.719 37.608c-.094-.284-.545-.162-.451.124l.317.958c.059.177.113.284.07.465-.05.21-.233.354-.373.51-.201.222.128.554.33.33.243-.268.566-.552.552-.945-.016-.466-.299-1.001-.445-1.442z" opacity=".71"></path>
        <path d="M81.522 34.82a.636.636 0 0 0-.176-.157c-.203-.12-.447-.151-.683-.153-.363-.004-1.629.167-1.44.782.028.09.11.155.199.186a.903.903 0 0 0 .279.036c.474.011.948.018 1.42-.016.155-.011.325-.035.429-.149.14-.155.087-.381-.028-.529z" opacity=".71"></path>
        <path d="M84.873 34.82a.622.622 0 0 1 .176-.157c.203-.12.447-.151.683-.153.363-.004 1.629.167 1.44.782-.028.09-.11.155-.199.186a.903.903 0 0 1-.279.036 14.94 14.94 0 0 1-1.42-.016c-.155-.011-.325-.035-.429-.149-.14-.155-.087-.381.028-.529z" opacity=".71"></path>
        <path d="M87.412 26.04c-.013-.299-.48-.301-.467 0a8.157 8.157 0 0 1-.227 2.309c-.071.292.379.416.451.124.196-.801.279-1.61.243-2.433z" opacity=".46"></path>
        <path d="M78.962 27.995c-1.687.8-3.488 2.729-3.086 4.741.059.294.509.17.451-.124-.36-1.801 1.398-3.515 2.871-4.214.272-.129.035-.531-.236-.403z" opacity=".46"></path>
        <path d="M80.832 26.085a6.09 6.09 0 0 0-4.131 1.799c-.213.213.118.543.33.33a5.587 5.587 0 0 1 3.801-1.662c.299-.011.301-.478 0-.467z" opacity=".46"></path>
        <path d="M72.224 43.269c2.025 0 10.694 7.991 11.287 7.991s8.064-7.659 9.785-7.991c1.714-.331 2.064.758 2.804 1.924.74 1.167 2.22 2.061 2.415 3.228.195 1.167-3.311 1.945-5.531 3.306-2.22 1.361-4.207 4.045-9.173 4.045s-14.821-6.067-15.405-6.417c-.584-.35.273-2.161 1.558-2.772 1.286-.612.234-3.314 2.26-3.314z" fill="#65B8AB" data-color="1"></path>
        <path d="M104.593 106.057H62.429a.693.693 0 0 1-.685-.586l-4.169-26.852a.693.693 0 0 1 .685-.798h50.503c.425 0 .75.379.685.798l-4.169 26.852a.694.694 0 0 1-.686.586z" fill="#FFFFFF" data-color="4"></path>
        <path d="M104.631 104.657H62.447a.233.233 0 1 1 0-.466h42.183a.233.233 0 1 1 .001.466z" opacity=".46"></path>
        <path d="M83.511 88.556c-1.624 0-4.695-.268-4.695-1.283s3.071-1.283 4.695-1.283 4.695.268 4.695 1.283-3.071 1.283-4.695 1.283zm0-2.1c-2.789 0-4.228.572-4.228.817 0 .244 1.438.817 4.228.817 2.789 0 4.228-.572 4.228-.817 0-.244-1.439-.817-4.228-.817z" opacity=".46"></path>
        <path d="M84.495 40.591c-.594.649-1.453.561-2.152.132-.257-.158-.492.246-.236.403.872.535 1.986.595 2.718-.205.203-.221-.127-.552-.33-.33z" opacity=".71"></path>
        <path d="M98.769 161.425c-3.244 2.371-8.479 9.735-10.662 12.125-1.089 1.185-2.085 1.269-2.748.798a1.611 1.611 0 0 1-.355-.341c-.421-.541-.584-1.377-.346-2.193.584-2.016 5.342-13.861 5.17-14.57-.005-.009-.009-.023-.014-.037a1.943 1.943 0 0 0-.262-.383c-.14-.182-.332-.411-.566-.677l6.375-6.244c.243.271.477.523.696.751.112.121.224.233.327.341.294.299.552.541.762.719 2.071 1.75 4.151 3.44 4.347 4.592.193 1.148.525 2.753-2.724 5.119z" fill="#FFFFFF" data-color="4"></path>
        <path d="M98.385 48.874a.233.233 0 0 0-.312-.108c-.12.058-11.983 5.797-14.625 5.723l-.041-.003c-.222-.261-.637-.866-.544-1.353.135-.701.697-1.538.703-1.547a.233.233 0 1 0-.388-.261c-.025.037-.621.924-.774 1.72-.095.495.141 1.004.367 1.36-3.591-.67-14.157-5.215-14.271-5.264a.233.233 0 1 0-.185.429c.496.214 11.98 5.153 14.971 5.375l.006.003.005-.002c.047.003.099.009.142.01h.044c2.827 0 14.305-5.533 14.795-5.77a.235.235 0 0 0 .107-.312z" opacity=".46"></path>
        <path fill="#FFFFFF" d="M81.309 52.744v11.778h-.935V52.744h.935z" data-color="4"></path>
        <path fill="#FFFFFF" d="M85.642 52.744v8.044h-.935v-8.044h.935z" data-color="4"></path>
        <path d="M80.641 39.948a2.054 2.054 0 0 1-2.053-2.05 2.054 2.054 0 0 1 4.106 0c0 1.13-.921 2.05-2.053 2.05zm0-3.634c-.875 0-1.586.71-1.586 1.583a1.587 1.587 0 0 0 3.172 0c0-.873-.712-1.583-1.586-1.583z" fill="#FFFFFF" data-color="4"></path>
        <path d="M86.156 39.948a2.054 2.054 0 0 1-2.053-2.05 2.054 2.054 0 0 1 4.106 0 2.053 2.053 0 0 1-2.053 2.05zm0-3.634c-.875 0-1.586.71-1.586 1.583a1.587 1.587 0 0 0 3.172 0c0-.873-.711-1.583-1.586-1.583z" fill="#FFFFFF" data-color="4"></path>
        <path fill="#FFFFFF" d="M84.394 37.213v.467H82.46v-.467h1.934z" data-color="4"></path>
        <path d="M96.386 150.995c-1.902 2.352-4.244 4.275-6.572 6.212a1.943 1.943 0 0 0-.262-.383c2.309-1.923 4.627-3.836 6.506-6.17.113.122.225.234.328.341z" fill="#A65953" data-color="3"></path>
        <path d="M98.262 63.472h-5.531a.836.836 0 1 1 0-1.672h5.531a.835.835 0 1 1 0 1.672z" fill="#FFFFFF" data-color="4"></path>
    </g>
</svg>
