<svg preserveAspectRatio="xMidYMid meet" data-bbox="51 20 98 160" viewBox="51 20 98 160" height="200" width="200" xmlns:xlink="http://www.w3.org/1999/xlink" xmlns="http://www.w3.org/2000/svg" data-type="color" role="presentation" aria-hidden="true" aria-label="">
    <g>
        <defs>
            <path d="m101.5 56.82 7.133 10.067 8.381-13.632c-.017-.773 6.985 2.42 5.779 3.92-4.692 13.08-2.922 26.459-17.83 23.742-8.568-1.561-10.141-18.175-10.141-18.175l6.678-5.922z" id="7e84d0c3-c175-48fd-a36b-7f588043560c_comp-li51ce72"></path>
        </defs>
        <clipPath id="a6562ef1-e578-453d-a013-a884d1c5cbae_comp-li51ce72">
            <use overflow="visible" xlink:href="#7e84d0c3-c175-48fd-a36b-7f588043560c_comp-li51ce72"></use>
        </clipPath>
        <path d="m101.5 56.82 7.133 10.067 8.381-13.632c-.017-.773 6.985 2.42 5.779 3.92-4.692 13.08-2.922 26.459-17.83 23.742-8.568-1.561-10.141-18.175-10.141-18.175l6.678-5.922z" fill="#FFAEC1" clip-path="url(#a6562ef1-e578-453d-a013-a884d1c5cbae_comp-li51ce72)" data-color="1"></path>
        <defs>
            <path id="58ecea12-9822-4aa4-857e-d46c46fe6b7c_comp-li51ce72" d="M72.121 112.515v67.443H51v-67.443h21.121z"></path>
        </defs>
        <clipPath id="43b7c3db-3fe2-4036-bb3b-07ab10497d3b_comp-li51ce72">
            <use overflow="visible" xlink:href="#58ecea12-9822-4aa4-857e-d46c46fe6b7c_comp-li51ce72"></use>
        </clipPath>
        <path fill="#69BFAD" clip-path="url(#43b7c3db-3fe2-4036-bb3b-07ab10497d3b_comp-li51ce72)" d="M72.121 112.455v67.504H51v-67.504h21.121z" data-color="2"></path>
        <path d="M91.94 142.386s-4.704 12.449-7.374 14.565c-2.671 2.115-5.016-23.419-5.016-23.419l9.48-2.472 2.91 11.326z" fill="#F98674" data-color="3"></path>
        <path d="M85.257 156.501a.252.252 0 0 1-.147-.047c-1.961-1.391-4.206-21.015-4.456-23.248a.252.252 0 0 1 .503-.056c.97 8.68 2.901 21.939 4.246 22.893a.25.25 0 0 1 .059.351.249.249 0 0 1-.205.107z" fill="#F5F5FA" data-color="4"></path>
        <path d="M91.83 143.736c-.11-.025-3.593-1.708-3.593-1.708a.25.25 0 0 1-.117-.336.255.255 0 0 1 .338-.117l3.482 1.683a.25.25 0 0 1 .117.336.25.25 0 0 1-.227.142z" fill="#F5F5FA" data-color="4"></path>
        <path d="M91.059 146.543c-.102-.022-3.76-1.631-3.76-1.631a.25.25 0 0 1-.129-.332.253.253 0 0 1 .334-.128l3.658 1.61a.25.25 0 0 1-.103.481z" fill="#F5F5FA" data-color="4"></path>
        <path d="M117.712 166.12s13.201 2.048 15.826 4.219c2.625 2.172-22.009 9.661-22.009 9.661l-4.363-8.736 10.546-5.144z" fill="#F98674" data-color="3"></path>
        <path d="M110.905 179.002a.253.253 0 0 1-.079-.492c8.338-2.714 20.984-7.299 21.649-8.804a.253.253 0 0 1 .463.203c-.968 2.195-19.809 8.382-21.954 9.08a.242.242 0 0 1-.079.013z" fill="#F5F5FA" data-color="4"></path>
        <path d="M117.869 169.991c-.198-.042-.28-.179-.246-.313l.946-3.737a.253.253 0 0 1 .491.123l-.946 3.737a.253.253 0 0 1-.245.19z" fill="#F5F5FA" data-color="4"></path>
        <path d="M120.894 170.328c-.19-.035-.277-.169-.247-.305l.838-3.893a.253.253 0 0 1 .3-.194.25.25 0 0 1 .194.299l-.838 3.894a.252.252 0 0 1-.247.199z" fill="#F5F5FA" data-color="4"></path>
        <defs>
            <path d="m108.99 109.691-32.244-5.051a377.743 377.743 0 0 0-6.927-4.152l13.704-12.414 2.794-7.798s23.47 7.575 28.3 9.726c4.909 2.209 13.114 5.456 15.662 9.867 3.278 5.675 3.821 9.749-2.421 16.524-3.786 4.109-10.745 10.867-14.875 14.63-1.141 1.039-16.291 14.183-16.089 14.389l-12.953-13.206s16.425-14.723 25.049-22.515z" id="34aaedad-3960-426f-93d6-ec883b8c4d7b_comp-li51ce72"></path>
        </defs>
        <clipPath id="2e616693-49f2-442c-b59c-87ed29a689e8_comp-li51ce72">
            <use overflow="visible" xlink:href="#34aaedad-3960-426f-93d6-ec883b8c4d7b_comp-li51ce72"></use>
        </clipPath>
        <path d="m108.99 109.691-32.244-5.051a377.743 377.743 0 0 0-6.927-4.152l13.704-12.414 2.794-7.798s23.47 7.575 28.3 9.726c4.909 2.209 13.114 5.456 15.662 9.867 3.278 5.675 3.821 9.749-2.421 16.524-3.786 4.109-10.745 10.867-14.875 14.63-1.141 1.039-16.291 14.183-16.089 14.389l-12.953-13.206s16.425-14.723 25.049-22.515z" fill="#32384D" clip-path="url(#2e616693-49f2-442c-b59c-87ed29a689e8_comp-li51ce72)" data-color="5"></path>
        <defs>
            <path d="M121.898 165.99 89.957 83.779l-21.736-2.408c0 23.672 6.527 20.851 18.365 50.21 2.949 7.313 15.565 41.394 15.565 41.394l19.747-6.985z" id="f8c6e9d4-c6e5-4860-af0a-0404f3b7d608_comp-li51ce72"></path>
        </defs>
        <clipPath id="db02b79a-eb69-45fa-93b7-93a8e754a67e_comp-li51ce72">
            <use overflow="visible" xlink:href="#f8c6e9d4-c6e5-4860-af0a-0404f3b7d608_comp-li51ce72"></use>
        </clipPath>
        <path d="M121.898 165.99 89.957 83.779l-21.736-2.408c0 23.672 6.527 20.851 18.365 50.21 2.949 7.313 15.565 41.394 15.565 41.394l19.747-6.985z" fill="#32384D" clip-path="url(#db02b79a-eb69-45fa-93b7-93a8e754a67e_comp-li51ce72)" data-color="5"></path>
        <path d="M69.819 63.647c.819-4.382-.067-13.711 8.059-15.892 4.78-1.283 10.736-.337 10.736-.337s7.196 2.055 12.959 9.372c.104.132-4.382 4.034-4.382 4.034l-1.578 12.411 3.025 11.093c-.709-.083-22.256 4.558-32.037-1.248.001-.001.588-5.362 3.218-19.433z" fill="#F2AD6D" data-color="6"></path>
        <path d="M96.263 68.069c-.159-.012-.263-.133-.252-.272l.877-11.097a.252.252 0 0 1 .272-.231.252.252 0 0 1 .232.271l-.878 11.097a.25.25 0 0 1-.251.232z" fill="#32384D" data-color="5"></path>
        <path d="M92.401 49.067a26.084 26.084 0 0 0-1.873-.918l1.529-5.972-8.133-2.595-1.933 7.553-.312.02c6.499 5.362 10.339 2.928 11.108 2.125a41.273 41.273 0 0 0-.386-.213z" fill="#FFAEC1" data-color="1"></path>
        <path d="M106.399 70.357a.25.25 0 0 1-.206-.397l2.308-3.248a.253.253 0 0 1 .413.291l-2.308 3.248a.255.255 0 0 1-.207.106z" fill="#32384D" data-color="5"></path>
        <path d="M108.749 110.028a.253.253 0 0 1-.251-.222.253.253 0 0 1 .221-.28l5.656-.668a.252.252 0 1 1 .059.501l-5.656.668-.029.001z" fill="#F5F5FA" data-color="4"></path>
        <path d="M109.869 135.212a.255.255 0 0 1-.237-.162L94.006 94.154a.252.252 0 0 1 .472-.179l15.627 40.895a.251.251 0 0 1-.147.325.255.255 0 0 1-.089.017z" fill="#F5F5FA" data-color="4"></path>
        <path d="M145.559 58.231h-23.698c-1.753 0-3.188-1.428-3.188-3.174V35.062c0-1.745 1.435-3.173 3.188-3.173h23.698c1.753 0 3.188 1.428 3.188 3.173v19.995c0 1.746-1.435 3.174-3.188 3.174z" fill="#F5F5FA" data-color="4"></path>
        <path d="M145.559 58.482h-23.698c-1.897 0-3.441-1.537-3.441-3.425V35.062c0-1.889 1.544-3.425 3.441-3.425h23.698c1.897 0 3.441 1.537 3.441 3.425v19.995c0 1.889-1.544 3.425-3.441 3.425zM121.861 32.14a2.932 2.932 0 0 0-2.935 2.922v19.995a2.932 2.932 0 0 0 2.935 2.922h23.698a2.932 2.932 0 0 0 2.935-2.922V35.062a2.932 2.932 0 0 0-2.935-2.922h-23.698z" fill="#32384D" data-color="5"></path>
        <path d="M148.747 38.289h-29.876a.252.252 0 1 1 0-.504h29.876a.252.252 0 1 1 0 .504z" fill="#32384D" data-color="5"></path>
        <path d="M147.022 36.878a.255.255 0 0 1-.179-.074l-2.824-2.812a.25.25 0 0 1 0-.356.255.255 0 0 1 .358 0l2.824 2.811a.25.25 0 0 1 0 .356.25.25 0 0 1-.179.075z" fill="#32384D" data-color="5"></path>
        <path d="M144.198 36.878a.255.255 0 0 1-.179-.074.25.25 0 0 1 0-.356l2.824-2.811a.255.255 0 0 1 .358 0 .25.25 0 0 1 0 .356l-2.824 2.812a.258.258 0 0 1-.179.073z" fill="#32384D" data-color="5"></path>
        <path fill="#69BFAD" d="M146.764 41.421v10.997h-11.047V41.421h11.047z" data-color="2"></path>
        <path d="M142.281 46.667a2.29 2.29 0 0 0-1.041-4.336 2.297 2.297 0 0 0-2.302 2.292c0 .892.513 1.665 1.261 2.044-2.16.474-3.777 2.39-3.777 4.683h9.636c0-2.293-1.617-4.209-3.777-4.683z" fill="#F5F5FA" data-color="4"></path>
        <path d="M128.081 41.474h-7.139a.252.252 0 1 1 0-.504h7.139a.252.252 0 1 1 0 .504z" fill="#32384D" data-color="5"></path>
        <path d="M128.081 43.694h-7.139a.252.252 0 1 1 0-.504h7.139a.252.252 0 1 1 0 .504z" fill="#32384D" data-color="5"></path>
        <path d="M128.081 50.57h-7.139a.252.252 0 1 1 0-.504h7.139a.252.252 0 1 1 0 .504z" fill="#32384D" data-color="5"></path>
        <path d="M128.081 52.791h-7.139a.252.252 0 1 1 0-.504h7.139a.252.252 0 1 1 0 .504z" fill="#32384D" data-color="5"></path>
        <path d="M134.309 46.07h-7.138a.252.252 0 1 1 0-.504h7.138a.252.252 0 1 1 0 .504z" fill="#32384D" data-color="5"></path>
        <path d="M134.309 48.291h-7.138a.252.252 0 1 1 0-.504h7.138a.252.252 0 1 1 0 .504z" fill="#32384D" data-color="5"></path>
        <path d="M122.389 58.543c.499-5.485-3.707-8.317-3.707-8.317s.572-3.696.249-4.224c-.545-.891-1.607-1.286-2.069 1.15-.109.573-1.275 3.528-1.178 4.423.097.895.351 3.685.351 3.685s2.934 4.154 4.988 3.827c.483-.077.942-.276 1.366-.544z" fill="#FFAEC1" data-color="1"></path>
        <path d="M92.022 146.543a.253.253 0 0 1-.241-.176c-1.924-6.086-6.52-17.022-6.566-17.132a.253.253 0 0 1 .467-.195c.046.11 4.65 11.068 6.581 17.175a.252.252 0 0 1-.241.328z" fill="#F5F5FA" data-color="4"></path>
        <defs>
            <path d="M54.093 109.315s1.639-.836 3.324-.27c0 0 1.999-.813 3.302-.183 0 0 4.102-26.637 9.1-45.216l13.77 1.742c-5.262 15.31-12.912 39.164-13.62 42.045-1.1 4.471.692 4.721-.109 6.14-1.209 2.14-4.894 1.689-5.907 1.474-.648-.137-1.033-.849-.739-1.44.152-.304.472-.558 1.101-.612.273-.024.516-.079.738-.153h-4.48s-.807 3.434-1.908 3.434-1.394-1.017-1.394-1.017-.116.999-1.384 1.01c-1.267.01-1.806-1.529-1.806-1.529s.176.909-1.225.519c-1.402-.388-.584-6.243 1.237-5.944z" id="22a69e6f-117e-4071-9848-772fd24afeec_comp-li51ce72"></path>
        </defs>
        <clipPath id="b8a53bac-f196-4785-818e-ccccd4a88b08_comp-li51ce72">
            <use overflow="visible" xlink:href="#22a69e6f-117e-4071-9848-772fd24afeec_comp-li51ce72"></use>
        </clipPath>
        <path d="M54.093 109.315s1.639-.836 3.324-.27c0 0 1.999-.813 3.302-.183 0 0 4.102-26.637 9.1-45.216l13.77 1.742c-5.262 15.31-12.912 39.164-13.62 42.045-1.1 4.471.64 3.644-.109 6.14-.665 2.215-4.894 1.689-5.907 1.474-.648-.137-1.033-.849-.739-1.44.152-.304.472-.558 1.101-.612.273-.024.516-.079.738-.153h-4.48s-.807 3.434-1.908 3.434-1.394-1.017-1.394-1.017-.116.999-1.384 1.01c-1.267.01-1.806-1.529-1.806-1.529s.176.909-1.225.519c-1.402-.388-.584-6.243 1.237-5.944z" fill="#FFAEC1" clip-path="url(#b8a53bac-f196-4785-818e-ccccd4a88b08_comp-li51ce72)" data-color="1"></path>
        <path d="M57.274 115.967a.252.252 0 0 1-.251-.228c-.19-2.027.128-6.521.142-6.711a.253.253 0 0 1 .505.036c-.003.046-.329 4.643-.143 6.629a.252.252 0 0 1-.229.274h-.024z" fill="#32384D" data-color="5"></path>
        <path d="M54.132 115.967a.254.254 0 0 1-.252-.228c-.19-2.027.111-6.262.124-6.441a.253.253 0 0 1 .504.036c-.003.043-.311 4.373-.124 6.358a.252.252 0 0 1-.229.274l-.023.001z" fill="#32384D" data-color="5"></path>
        <path d="M60.618 113.721c-.166-.016-.267-.14-.252-.279.178-1.672.067-2.151.066-2.156a.253.253 0 0 1 .488-.132c.015.052.139.558-.051 2.341a.252.252 0 0 1-.251.226z" fill="#32384D" data-color="5"></path>
        <path d="M83.59 65.641c-.032-.002-13.802-1.744-13.802-1.744a.252.252 0 1 1 .064-.5l13.541 1.713 2.043-9.238a.252.252 0 0 1 .301-.192c.137.03.223.164.193.3l-2.092 9.462a.255.255 0 0 1-.248.199z" fill="#32384D" data-color="5"></path>
        <path d="M63.3 113.261a.254.254 0 0 1-.252-.228.252.252 0 0 1 .228-.274l1.752-.165a.252.252 0 1 1 .048.502l-1.752.165H63.3z" fill="#32384D" data-color="5"></path>
        <path d="M96.001 34.512c-.05-.288-1.009-5.519-2.038-7.132-1.486-2.329-4.097-2.949-7.07-2.835-4.586.177-9.187 3.309-9.01 7.875.089 2.304 1.146 4.593 2.812 6.19.547.524 1.538 1.148 2.192 1.463.279.134 1.728 1.626 2.572 1.957.458.214.964.301 1.464.35 1.703.166 4.128.397 4.94.603.895.227 1.852.356 2.739.026.777-.289 1.268-1.159 1.476-1.919.158-.577.195-1.177.198-1.772.004-.568.015-2.097.06-2.163 1.537-2.246.864-2.99-.335-2.643z" fill="#FFAEC1" data-color="1"></path>
        <path d="M92.457 34.551c-.032-.179-.054-.364-.104-.54-.013-.156-.195-.264-.347-.242-.164.048-.246.114-.246.217.002.294.041.476.068.656.03.195.039.354.212.484.11.083.294.057.372-.053.122-.174.08-.328.045-.522z" fill="#32384D" data-color="5"></path>
        <path d="M79.048 37.453c-1.17-2.279-1.166-5.102-1.166-5.102-.076-2.688 1.506-4.874 3.759-6.243a10.98 10.98 0 0 1 1.896-.904c.205-.071.304-.105.404-.137l.131-.039c.093-.029.185-.057.279-.083l.158-.04c.086-.023.172-.046.258-.066.058-.014.117-.025.175-.038.082-.018.163-.037.245-.053l.204-.036.219-.039c.079-.013.159-.022.238-.033l.188-.026c.092-.011.184-.018.276-.027.051-.005.101-.011.152-.015.143-.011.286-.02.429-.025 2.973-.114 5.584.506 7.07 2.835.38.595.75 1.684 1.069 2.834-.974-.743-2.909-2.52-2.909-2.52-.442 3.733-9.265 16.051-9.265 16.051s-2.857-4.44-3.81-6.294z" fill="#242E49" data-color="7"></path>
        <path d="M90.587 33.582c-.238-.09-.288-.24-.226-.364.235-.467.969-1.209 2.067-.672a.251.251 0 1 1-.222.452c-.904-.442-1.345.354-1.393.446a.253.253 0 0 1-.226.138z" fill="#32384D" data-color="5"></path>
        <path d="M95.855 33.757c-.032-.18-.054-.364-.104-.54-.013-.156-.195-.264-.348-.243-.163.048-.246.114-.245.217.002.294.041.476.068.656.03.195.039.354.212.484.11.083.293.057.372-.054.122-.172.08-.326.045-.52z" fill="#32384D" data-color="5"></path>
        <path d="M94.213 32.502a.252.252 0 0 1-.182-.427c.043-.044.438-.433.946-.438.27.002.514.104.721.308a.25.25 0 0 1 .001.356.254.254 0 0 1-.358.001.497.497 0 0 0-.356-.162c-.255.001-.514.207-.593.286a.244.244 0 0 1-.179.076z" fill="#32384D" data-color="5"></path>
        <path d="M95.283 35.02a1.24 1.24 0 0 1-.616-.165 1.224 1.224 0 0 1-.585-.767c-.203-.798-.28-1.394-.229-1.77a.252.252 0 0 1 .284-.216.25.25 0 0 1 .217.283c-.041.308.034.854.219 1.58a.733.733 0 0 0 .918.522l.898-.259a.254.254 0 0 1 .313.172.251.251 0 0 1-.173.312l-.898.259a1.3 1.3 0 0 1-.348.049z" fill="#32384D" data-color="5"></path>
        <path d="M88.095 37.445c-.548.762-1.81.876-2.819.256s-1.382-1.74-.834-2.502c.548-.762 1.811-.876 2.819-.256 1.009.62 1.382 1.741.834 2.502z" fill="#FFAEC1" data-color="1"></path>
        <path d="M87.765 36.986a.254.254 0 0 1-.233-.153c-.62-1.454-2.379-1.028-2.453-1.009a.254.254 0 0 1-.308-.182.25.25 0 0 1 .182-.306c.776-.199 2.411-.185 3.045 1.3a.25.25 0 0 1-.233.35z" fill="#32384D" data-color="5"></path>
        <defs>
            <path d="M81.159 26.81s-.949-8.672-8.742-6.444c-7.793 2.228-1.763 13.557-5.272 16.172-1.349 1.006-3.273.232-4.809.524-2.134.407-4.268 2.402-4.871 4.459-.454 1.548-.102 3.254.686 4.663 1.068 1.911 2.963 3.309 5.069 3.888 2.317.637 4.622.094 6.759-.887 3.842-1.765 7.082-5.262 7.508-12.696.425-7.434 3.672-9.679 3.672-9.679z" id="aa38846a-0eb7-4477-ae20-a0026e8574dc_comp-li51ce72"></path>
        </defs>
        <use fill="#242E49" clip-rule="evenodd" fill-rule="evenodd" overflow="visible" xlink:href="#aa38846a-0eb7-4477-ae20-a0026e8574dc_comp-li51ce72" data-color="7"></use>
        <clipPath id="6526d12f-78af-40ab-9823-51d83df8a701_comp-li51ce72">
            <use overflow="visible" xlink:href="#aa38846a-0eb7-4477-ae20-a0026e8574dc_comp-li51ce72"></use>
        </clipPath>
        <path d="M81.159 26.81s-.949-8.672-8.742-6.444c-7.793 2.228-1.763 13.557-5.272 16.172-1.349 1.006-3.273.232-4.809.524-2.134.407-4.268 2.402-4.871 4.459-.454 1.548-.102 3.254.686 4.663 1.068 1.911 2.963 3.309 5.069 3.888 2.317.637 4.622.094 6.759-.887 3.842-1.765 7.082-5.262 7.508-12.696.425-7.434 3.672-9.679 3.672-9.679z" fill="#242E49" clip-rule="evenodd" fill-rule="evenodd" clip-path="url(#6526d12f-78af-40ab-9823-51d83df8a701_comp-li51ce72)" data-color="7"></path>
        <path d="M77.878 34.631a.253.253 0 0 1-.253-.25c-.001-.274.009-6.742 3.806-8.733a.254.254 0 0 1 .342.105.25.25 0 0 1-.106.34c-3.525 1.849-3.536 8.221-3.536 8.285a.252.252 0 0 1-.252.253h-.001z" fill="#F5F5FA" data-color="4"></path>
        <path d="m91.863 42.983-3.177-.934a.534.534 0 0 0-.545.699l2.521 4.889 1.201-4.654z" opacity=".15"></path>
        <path d="M93.946 39.066a.785.785 0 0 1-.619-.286c-.483-.558-.061-1.268.23-1.565a.254.254 0 0 1 .357-.005c.1.097.103.256.006.356-.005.005-.511.536-.209.885.284.329.94-.212.947-.218a.254.254 0 0 1 .357.028.25.25 0 0 1-.027.355c-.246.21-.652.45-1.042.45z" fill="#32384D" data-color="5"></path>
    </g>
</svg>
