<svg preserveAspectRatio="xMidYMid meet" data-bbox="31.585 19.934 136.877 160.133" viewBox="31.585 19.934 136.877 160.133" height="200" width="200" xmlns="http://www.w3.org/2000/svg" data-type="color" role="presentation" aria-hidden="true">
    <g>
        <path fill="#FFFFFF" d="m89.8 160.3 1.1 6 20.9-1.7-1.8-7.8-20.2 3.5z" data-color="1"></path>
        <path fill="#FFFFFF" d="m53 149.3-4.3-4.1-2.5 5.4 15.2 14.3 5.1-5.8-13.5-9.8z" data-color="1"></path>
        <path d="M167.7 77.2c-1.3 2.6-3.9 4-6.6 4.6-.4.1-.8.1-1.2.1-.5.1-.7.1-.9.6-.2.7-.5 1.3-.7 2-.6 1.4-1.3 2.7-2.2 3.9-1.7 2.2-4.6 4-7.5 3.3-.2 0-.3-.1-.4-.3-1.3-.3-2.4-1.2-3.4-2-1.6-1.1-2.9-2.5-3.6-4.3-1.4-3.7-1.1-7.6-1.4-11.4-.1-1.9-.7-3.7-1.8-5.3-1-1.5-2.1-2.9-3.2-4.4-2.2-3-4.3-6.3-5.8-9.8-1.3-3.2-1.3-6.7.9-9.4v-.3c0-.1.1-.1.2-.1.2-.1.4-.1.5-.1.3-.1.5-.1.8-.2 3.1-.8 6.5-1.1 9.7-.5 2.8.5 4.8 2.2 6.6 4.3 1.5 1.8 2.8 3.8 4.6 5.3 2.4 1.8 5.4 1.4 8.2 2.1 2.7.7 4.9 2.8 6.3 5.2.8 1.4.6 2.6.2 4.2-.4 1.6-.6 3.3 0 4.9.6 1.3 1.3 2.5 1.4 4 .2 1.1-.1 2.4-.7 3.6z" fill="#191717" data-color="2"></path>
        <path d="M144.7 70.8c-.1 1-.8 1.7-1.6 2.3-.9.7-1.9 1.4-3 2-2.1 1.2-4.3 1.7-6.7 1.7-2.3-.1-4.5-.7-6.6-1.7-.9-.4-2-.9-2.3-1.9-.4-.9.3-1.7 1.1-2 1.8-.7 4.8.5 5.5-2 .3-1.2 0-2.6-.1-3.8l-.3-2.7c-2.6.1-5.4.3-7.4-1.6-1.1-1-1.4-2.4-1.3-3.9.1-.9.3-1.7.2-2.6 0-.9-.1-1.7-.3-2.6-.1-.3.1-.7.5-.7 2.1 0 3.2-2.1 4.3-3.5 1.1-1.4 2.5-2.5 4.3-2.9.4-.1.6.3.4.6.5 2.3 1.3 4.6 2.3 6.7.3.3.6.7.9 1 .8.9 1.5 2 2.4 2.8.8.7 2.1.9 2.7 1.9.5.9.5 2.1.5 3.1.1 1.2.1 2.5.5 3.6.4 1.2 1.3 2.2 2.1 3.2.4.5.9 1.1 1.3 1.6.5.5.7.8.6 1.4z" fill="#FFFFFF" data-color="1"></path>
        <path d="M132.5 62.1c-1.1-.2-2.3 0-3.4 0-1.2-.1-2.4-.2-3.5-.5-1-.3-1.9-.9-2.3-1.9-.4-.9-.4-2-.3-3 0-1.1.1-2.1-.1-3.2-.1-.3-.1-.6-.2-.8-.1-.2-.3-.5-.2-.7.1-.2.9-.2 1.2-.3 1.7-.5 2.4-2.3 3.3-3.6 1.3-1.8 3.4-3 5.6-3.4.4-.1.4-.6 0-.6-2.2-.1-4.3.8-5.8 2.4-.7.8-1.2 1.7-1.8 2.6-.3.4-.6.8-.9 1.1-.4.4-.8.4-1.4.4-1.1.1-1.6.9-1.2 2 .2.6.4 1.2.5 1.9.1.7 0 1.3 0 2-.1 2.2.2 4.5 2.3 5.7 1.1.7 2.6.8 3.8 1 .8.1 1.6.1 2.3.1.8 0 1.6 0 2.3-.2.3-.2.3-.9-.2-1z" fill="#191717" data-color="2"></path>
        <path d="M128.7 50.1c0-.1-.1-.1-.1-.1-.2-.1-.4-.1-.5.1-.1.1-.1.2-.1.2-.1.1-.1.2-.2.2-.1.1-.1.2-.1.3-.1.1-.1.2-.2.3 0 .1-.1.2 0 .3 0 .1.1.2.2.2.2.1.4.1.6-.1 0-.1.1-.1.1-.2.1 0 .1-.1.1-.1l.2-.2.2-.2c.1-.1.1-.2.1-.3-.2-.2-.2-.3-.3-.4z" fill="#191717" data-color="2"></path>
        <path d="M125 54.1c-.3.1-.5.2-.7.4l-.6.3c-.4.2-.9.4-1.4.6-.2.1-.3.2-.2.4.1.2.2.3.4.2.5-.1 1-.3 1.4-.5.2-.1.5-.2.7-.4.2-.1.5-.3.7-.5.3-.2 0-.6-.3-.5z" fill="#191717" data-color="2"></path>
        <path d="M131.5 70.8c-.1.2-.2.3-.3.4-.1.1-.3.2-.4.3h-4.4l.3-.9c.9 0 1.8.1 2.6.1.5-.1.9-.3 1.2-.7.2-.5.2-1 .2-1.5 0-.6-.1-1.3-.1-1.9-.1-1.4-.4-2.7-.6-4-.1-.4.6-.5.7-.1.6 1.4.9 3 1.1 4.6.2 1.1.4 2.6-.3 3.7z" fill="#191717" data-color="2"></path>
        <path d="M68.9 38.3c-.7 2.2-1.4 4.3-2.1 6.5-.7-1.6-1.4-3.1-2-4.7-.1-.3-.4-.5-.8-.4-3.3.7-6.6 1.3-10 1.7-1-7-1.8-14-3.2-21-.1-.6-1.1-.4-1 .2.6 7.3 1.8 14.5 2.8 21.7.1.4.4.8.8.7 3.5-.5 7-1.2 10.4-2 .8 1.9 1.7 3.7 2.5 5.6.2.6 1 .5 1.2-.1.9-2.6 1.7-5.3 2.6-7.9.3-.7-1-1.2-1.2-.3z" fill="#FCDC24" data-color="3"></path>
        <path d="M78.8 34.9c-.4-.3-.8-.2-1.2-.1-.4.1-.8.2-1.1.3-.8.3-1.7.6-2.5.9l-2.4.9c-.8.3-1.7.6-2.4 1.2-.4.4 0 .9.5.9.8 0 1.7-.5 2.4-.8.8-.3 1.5-.6 2.3-.9.8-.3 1.5-.6 2.3-.8.4-.1.8-.3 1.1-.4.4-.1.9-.2 1.1-.7.1 0 0-.3-.1-.5z" fill="#FCDC24" data-color="3"></path>
        <path d="M78.9 34.9c-4.3-3-9.3-4.9-14-7-2.5-1.1-4.9-2.3-7.3-3.7-2.4-1.4-4.7-2.9-7.1-4.2-.5-.3-1.1.5-.6.9 2.1 1.7 4.5 3.1 6.9 4.4 2.3 1.3 4.7 2.5 7.1 3.7 4.8 2.2 9.7 4 14.1 6.9.7.5 1.6-.5.9-1z" fill="#FCDC24" data-color="3"></path>
        <path d="M69.3 38.5c-3.3-2.7-6.3-5.8-9.4-8.8-3-3-6.1-6-8.9-9.2-.4-.5-1.1.2-.8.7 2.1 3.5 4.4 6.8 6.8 10 2.4 3.2 4.8 6.4 7.5 9.3.3.3.7-.1.5-.5-2.1-3.4-4.7-6.5-7.1-9.6-1.1-1.4-2.1-2.9-3.2-4.4 1.4 1.5 2.9 3.1 4.3 4.6 3 3.1 6.2 5.8 9.4 8.7.7.6 1.5-.4.9-.8z" fill="#FCDC24" data-color="3"></path>
        <path d="M137.9 58.1c-1.3-.7-2.2-2-2.9-3.2-.8-1.3-1.5-2.6-2.1-4-.8-1.8-1.5-3.8-1.9-5.8 0-.1-.1-.2-.1-.3 0-.2-.1-.4-.1-.6.2-.2.5-.3.8-.3v.2c0 .2.1.4.1.6 0 .1 0 .1.1.2.5 1.8 1.1 3.6 1.8 5.4.6 1.4 1.3 2.7 2.1 4 .8 1.2 1.6 2.1 2.7 3.1.3.3 0 .9-.5.7z" fill="#191717" data-color="2"></path>
        <path d="M114.9 176.3c-.1.7-.2 1.7-.8 2-.2.1-.5.2-.7.3-.1 0-.1.1-.2.1h-.4c-5.4.4-10.8.8-16.2 1-2.7.1-5.4.2-8.2.3-2.4.1-4.9.2-7.2-.6-.2-.1-.3-.3-.3-.5.2-2.4 2.6-3.3 4.4-4.4.4-.3.9-.6 1.3-.9.2-.2.5-.4.7-.6.1 0 .1-.1.2-.1.5-.4.9-.8 1.3-1.3.2-.2.4-.5.5-.7.2-.4.4-.9.5-1.4v-.2c0-.2.1-.4.1-.6 0-.8-.1-1.6-.2-2.4 0-.1 0-.3-.1-.4 0-.1 0-.3-.1-.5.5 0 .9 0 1.4-.1.5 0 .9 0 1.4-.1 5.6-.3 11.3-.7 16.9-1.4.7-.1 1.4-.1 2-.2.4 0 .7-.1 1.1-.1l.3 1.2c.5 2 1 4.1 1.5 6.1.4 1.8 1.1 3.8.8 5.5z" fill="#191717" data-color="2"></path>
        <path d="m62.7 164.6-.9 1.2c-1.9 2.3-3.9 4.6-5.9 6.8-1.1 1.2-2.4 2.4-4 1.3-.8-.5-1.5-1.2-2.2-1.9-.8-.7-1.6-1.3-2.4-2-3.2-2.7-6.4-5.5-9.6-8.2-1.6-1.3-3.2-2.6-4.7-4-.5-.5-1.3-1.1-1.4-1.8-.1-.7.3-1.3 1-1.6 1.6-.8 3.5-.5 5.3-.3.6.1 1.2.1 1.8.1h.9c.6-.1 1.1-.2 1.6-.4.3-.1.6-.3.8-.5.5-.5.9-.9 1.3-1.4.2-.2.4-.5.6-.7.2-.2.4-.5.5-.7.2-.3.5-.7.7-1l.1.1c.3.2.5.5.8.7 3.4 3.1 6.8 6.2 10.2 9.4 1.6 1.4 3.2 2.9 4.8 4.3.2.1.5.3.7.6z" fill="#191717" data-color="2"></path>
        <path d="M149.7 80.6c-.4 1.1-.7 2.3-.9 3.5-.4 2.1-.8 4.3-1.5 6.4-.7 2.1-1.6 4.2-2.7 6.1-1 2-2.2 3.9-3.4 5.8-1.1 1.7-2 3.6-3.5 5-1.5 1.5-3.4 1.9-5.4 2.1-2.5.2-4.9.2-7.4.1-4.8-.2-9.7-.4-14.4-1.2-3.6-.7-7.7-1.7-10.2-4.6-2.9-3.2-2.4-7.6-.5-11.2 1-1.9 2.3-3.7 3.6-5.5 1.3-1.8 2.7-3.5 4.1-5.2 2.9-3.3 6-6.6 9.5-9.4.8-.6 1.6-1.2 2.6-1.5 1-.3 2.1-.4 3.1-.4 1.1 0 2.1 0 3.2.1h.8l-.3.9c-.3 1.2-.2 2.4 1 3 1.7.9 4 1 5.9.8 2-.2 4-.9 5.8-1.8.7-.3 1.4-.7 2-1.1.6-.3 1.1-.7 1.7-1 .5 0 1 .1 1.5.2 1.8.3 3.7 1 5.1 1.8.3.2.3.7-.1.8.2.2.5.4.6.8.2.4.1.9.1 1.3 0 .5.2 1 .3 1.6.2.8-.2 1.7-.6 2.6z" fill="#9FDFFF" data-color="4"></path>
        <path d="M119.5 78.1c-.3-.8-.5-1.6-.7-2.3-.1-.4-.7-.3-.7.1.1.7.3 1.4.5 2.1-2.9 1.4-5.2 4.4-5.5 7.5-.2 1.6.1 3.2.9 4.7.2.4.4.7.7 1 .3.3.7.6.8 1 .2.5 0 1.3-.1 1.8-.1.6-.2 1.2-.2 1.8 0 .5.7.7.8.2.3-1 .4-2.1.5-3.2.1-.8-.2-1.2-.7-1.7-1.2-1.2-1.8-2.9-1.8-4.5 0-1.7.5-3.3 1.5-4.7 1-1.4 2.4-2.4 3.9-3.3 0-.1.1-.3.1-.5z" fill="#FFFFFF" data-color="1"></path>
        <path d="M146.4 133c-1.4.2-2.9.2-4.3.3-1.4.1-2.9.1-4.3.2l-8.4.3c-5.7.2-11.3.2-17 .1-3.2 0-6.5-.1-9.7 0-.4 0-.4.6 0 .6 5.6.6 11.3.8 17 .9 5.7.1 11.4 0 17.2-.2 1.6-.1 3.2-.1 4.9-.2 1.6-.1 3.2-.3 4.9-.2.9-.1.8-1.9-.3-1.8z" fill="#9FDFFF" data-color="4"></path>
        <path d="M144.3 125.6c-1.2 3.1-4 5.1-7.2 6.1-3.5 1.1-7.2 1.3-10.8 1.6-3.3.3-6.7.6-10 .7h-1c.2 1.9.1 3.8-1 5.6-1.1 1.9-3 3.7-2.8 6.1.1 2.3 1.7 4.4 1.9 6.7.1 1.2-.2 2.3-.7 3.3-.3.6-.7 1.3-1.1 1.9-.3.5-.5.9-.6 1.4 0 0 0 .1-.1.1-.2.2-.5.3-.7.1-3.3.4-6.6.9-9.9 1.3-3.3.4-6.6 1-9.9 1.3-.4.1-.8.1-1.2.1-.1-.5-.1-.9-.2-1.4-.5-4.1-1-8.2-1.6-12.3-.2-1.8-.4-3.5-.7-5.3l-.1.1c-.3.3-.6.5-.9.7-.5.4-1 .7-1.6.9-2.1 1.1-4.6 1.8-6.2 3.7-1.4 1.6-2.1 3.6-3 5.5-.9 1.8-1.9 3.6-3.7 4.8-2 1.3-4.5 1.6-6.5 2.9-.5.3-1.1-.3-.7-.8.1-.1.1-.2.2-.2-2.5-2.3-4.9-4.6-7.4-6.9-1.2-1.1-4.4-3.8-7.8-6.8-.3-.3-.6-.5-.9-.8.2-.3.4-.7.7-1l3.6-5.4c2.9-4.2 5.9-8.3 8.9-12.4 2.9-3.9 5.8-8 9.1-11.6 1.4-1.6 3-3.1 4.8-4.2 2-1.2 4.2-1.9 6.5-2.3 4.8-.9 9.8-1.3 14.7-1.7 0 0 .1-.1.2-.1 2.1-.1 4.2.3 6.3.6 1.1.1 2.1.3 3.2.3.5 0 1.1 0 1.6-.1.4 0 .7-.1 1.1-.1 1.8-1.8 3.6-3.8 5.2-5.8 1-1.2 1.9-2.5 2.7-3.8.3-.5.6-1.1 1.1-1.6.5-.5 1.1-.6 1.7-.5 3.4.2 6.9.4 10.3.7 1.8.1 3.5.3 5.3.4.9.1 1.8.1 2.7.2.7.1 1.5 0 2.2.3.6.3.9.8.9 1.4v2.6c.1.1.3.2.3.4 0 1.1.2 2.1.4 3.2l.3 1.2c.8 3 2 6 2.8 9 .5 3.3.8 6.8-.4 9.9z" fill="#3BA7FF" data-color="5"></path>
        <path d="M120.9 107.7c-.1.7-1.3.7-1.8.8-1 .1-2 .2-3 .2-1.9.2-3.9.3-5.8.5s-3.9.3-5.8.5-3.8.3-5.6.8c-.4.1-.2.7.1.6 4.3-.5 8.6-.8 13-1.2 2.2-.2 4.3-.4 6.5-.5 1.2-.1 3.1-.1 3.1-1.7.1-.4-.7-.4-.7 0z" fill="#FFFFFF" data-color="1"></path>
        <path d="M87.6 115.9c-2.7.6-3.2 3.6-3.1 5.9.2 2.8.5 5.6.8 8.4.3 2.9.5 5.8.8 8.6.1 1.4.3 2.8.4 4.3-.3.3-.6.6-.9.8v-.5c-.1-1.4-.2-2.7-.4-4.1-.5-4.9-1-9.7-1.4-14.6-.2-2.2-.6-4.5.1-6.6.6-1.6 1.9-2.9 3.6-2.9.4 0 .5.6.1.7z" fill="#FFFFFF" data-color="1"></path>
        <path d="m141.6 106.9-.3-1.2.3.9c.1.1.1.2 0 .3z" fill="#3BA7FF" data-color="5"></path>
        <path d="M111.7 105.6c-.2 1-.5 1.5-1.3 2l-3.3 2.1c-3.2 2-7.3 4.9-10.9 6.3-3.2 1.3-6.6.7-12.6.5-5.1-.1-9-.2-14.2-.6-1.3-.1-2.6-.3-3.9-.5-.8-.2-1.8-.4-2.3-1.2-.3-.5-.4-1-.3-1.5.1-.4.2-.8.5-1.2.3-.5.7-1 1.3-1 1-1 2.2-1.9 3.3-2.8 2.4-1.7 4.9-3.2 7.6-4.6 1.1-.6 2.3-1.2 3.4-1.8 1.1-.6 2.3-1 3.6-1 1.4 0 2.8.2 4.2.4 1.4.1 2.8.3 4.1.4 5.7.5 11.3 1.1 17 1.7 1.5.4 4.3.5 3.8 2.8z" fill="#191717" data-color="2"></path>
        <path d="M108.4 105.6c-.4.3-.9.5-1.4.7-1.9 1.1-3.8 2.2-5.7 3.2-1.7 1-4.9 3.4-6.9 3.7-2.2.4-11.1-.5-13.5-.6-2.9-.1-11.5 0-11.8-1.5-.3-1.3 3.5-3 3.8-3.2 1.7-1.6 3.2-1.7 5.2-3 1.9-1.2 6.2-2.9 8.9-2.7 1.4.1 16.1 1.3 17.5 1.4.6.1 1.2.1 1.8.2.5.1 1.2.1 1.7.3.7.4 1.2.9.4 1.5z" fill="#FCDC24" data-color="3"></path>
        <path d="M128.3 94.7c-5.6-.9-11.1-1.7-16.7-2.5-1.2-.2-2.7-.7-3.8 0-.2.1-.4.3-.6.4-.3.2-.6.1-.9 0-.6-.1-1.2-.1-1.8-.1-2.2.2-4.3 1.5-5.7 3.2-.9 1-1.5 2.2-2 3.4-.4 1.1-.7 2.1-.8 3.2-.6.4-.8 1.1-.6 1.9.4 1.3 1.7 1.1 2.4.2.5-.6.8-1.4 1.1-2.1 0 0 .1-.1.1-.2l.3-.6c.9-2 2.3-4.2 4.6-4.5-.1.5 0 .9 0 1.4-.1.5 0 1 .3 1.3.7.8 1.5.1 2.3.4.8.3 1.2 1.1 2 1.4.5.2 1.1.3 1.6.1.6.6 1.6.8 2.4.6.5-.1 1-.3 1.3-.7l.3-.3c.9.6 1.9.6 2.9.4.5-.1 1-.3 1.5-.5l.9.3c.2.2.5.4.7.5l.1.1c.1.2.2.3.4.4.7.3 1.4.6 2.1.8 1.5.6 3.2 1 4.8 1.4.3.1.5-.1.6-.3h.2c.3 0 .4 0 .5-.1.4-.1.6-.4.6-.8-.2-2.7-.3-5.4-.6-8 .2-.4-.2-.7-.5-.7z" fill="#FFFFFF" data-color="1"></path>
        <path d="M107.7 92.7c-.3.1-.7.4-1 .6-.5-.1-.9-.1-1.4-.1-1.6-.1-3.1.3-4.5 1.3-1.9 1.3-3.1 3.3-3.9 5.4-.4 1.1-.8 2.2-1 3.3-.1.5-.1 1.5.6 1.6.7.1 1.2-.8 1.5-1.2.7-1 1.2-2.2 1.7-3.3.3-.9.6-1.8 1.3-2.5.5-.5 1.2-.9 2-1.1l1.2-.3c-.1.3-.3.7-.4 1.1-.4.1-.8.2-1.1.3-.1.1-.3.1-.4.2-1.4.8-1.6 2.5-2.2 3.8-.6 1.4-2.7 5.7-4.8 3.6-.8-.9-.6-2.1-.3-3.2.3-1.3.7-2.6 1.3-3.8 1.1-2.3 2.7-4.4 5-5.5 1.7-.9 3.4-.9 5.1-.5.4 0 .9.2 1.3.3z" fill="#191717" data-color="2"></path>
        <path d="M109.3 92.6c-.6-.2-1.1-.1-1.6.1-.3.1-.7.4-1 .6-.2.1-.4.3-.5.5-.8.7-1.5 1.6-1.9 2.6-.1.3-.3.7-.4 1.1-.2.7-.2 1.5.2 2 .6.7 1.6.5 2.4.7.4.1.5.5.1.7-.8.5-2.2.2-2.9-.4-.9-.7-1-1.7-.9-2.7.1-.4.2-.8.3-1.1.3-.8.7-1.5 1.1-2 .3-.5.8-1 1.3-1.5.3-.3.7-.6 1.1-.8 1-.6 2-.9 3.1-.3.2.1 0 .7-.4.5z" fill="#191717" data-color="2"></path>
        <path d="M109 93.4c-1 .8-.4 0-1.1 1.1-.8 1-1.5 2.2-1.9 3.4-.4 1.1-.5 2.5.4 3.4.8.8 2 1 2.9.4.3-.2 0-.7-.3-.7-.8.2-1.8 0-2.2-.8-.5-.9 0-2.1.4-3 .9-1.9.6-1.8 2.1-3.3.4-.2.1-.7-.3-.5z" fill="#191717" data-color="2"></path>
        <path d="M114 101.2c-.2.3-.4.5-.8.7-.4.2-.8.2-1.1.1-.8-.1-2.3-.4-2.1-1.4.1-.5.3-1 .5-1.4.2-.5.5-1 .7-1.5.5-1 1-1.9 1.5-2.9.2-.3-.4-.6-.6-.3-.9 1.1-1.5 2.2-2.2 3.5-.5 1-1.5 2.5-.8 3.6.6 1 2.2 1.4 3.3 1.3.9 0 2.3-.5 2.2-1.6 0-.1-.5-.3-.6-.1z" fill="#191717" data-color="2"></path>
        <path d="M126.4 94.7c-1.2-.1-2.5-.2-3.7-.3-2.4-.3-4.9-.6-7.3-1-2.4-.4-4.6-.8-7.1-.7-.4 0-.5-.5-.1-.6 2.2-.6 4.5-.1 6.7.3 2.4.4 4.9.8 7.3 1.1 1.4.1 2.7.3 4.1.4 0 .2.1.5.1.8z" fill="#191717" data-color="2"></path>
        <path d="M115.3 99.7c-.1-.4-.5-.7-1-.8-.4 0-.8.1-1.1.3-.2.1-.3.3-.2.5.1.2.3.3.5.2.1 0 .1-.1.2-.1.2-.1.3-.1.4-.1.5.3.5.4.5.4-.1.3-.1.3-.2.4-.2.3-.3.5-.4.7-.1.2-.3.5-.3.7 0 .2.2.3.4.3.1 0 .2 0 .3-.1.1-.1.1-.1.1-.2.1-.1.1-.2.2-.3.1-.2.3-.4.4-.7.1-.4.3-.8.2-1.2z" fill="#191717" data-color="2"></path>
        <path d="M119.5 99.9c-1.3 1.1-3.1 1.4-4.7 1-.3-.1-.7.4-.3.6 1.8.9 4.2.5 5.7-.8.4-.5-.2-1.3-.7-.8z" fill="#191717" data-color="2"></path>
        <path d="M152.7 81.1c-.4 3.5-.9 7.2-2 10.6-.9 3-1.4 6.2-2.7 9.1-2.8 6.2-8.8 7.4-15 6-1.4-.3-2.8-.7-4.2-1.2-.4-.1-.7-.2-1.1-.4 0-.4-.1-.8-.2-1.2-.1-1.3-.3-2.5-.4-3.8-.2-1.4-.4-2.7-.5-4.1-.1-.5-.1-.9-.2-1.4-.1-.3-.1-.6-.1-.9.3 0 .6.1.9.1.9.1 1.8.1 2.6.2.8 0 1.5.1 2.3.1.8-2.7 1.7-5.4 2.6-8.1.8-2.5 1.6-4.9 2.8-7.2 1.8-3.4 5.3-6.6 9.4-6.1 1.7.2 3.5 1 4.6 2.4 1.5 1.6 1.5 3.9 1.2 5.9z" fill="#9FDFFF" data-color="4"></path>
        <path d="M127.8 105.2c-.7-.2-1.4-.5-2.1-.7-2.6-.9-5.3-1.6-7.7-2.8-.4-.2-.3-.8.2-.7 2.8.6 5.4 1.7 8.1 2.6.5.2 1 .3 1.5.5-.1.3-.1.7 0 1.1z" fill="#191717" data-color="2"></path>
        <path d="M111.1 158.8c.4 1.6.8 3.3 1.2 4.9-.4 0-.7.1-1.1.1-.4-1.6-.8-3.1-1.2-4.7-.1-.6.9-1 1.1-.3z" fill="#191717" data-color="2"></path>
        <path d="M92.2 113.7c-.7.1-20.2-.4-28.2-.9-1.3-.1-3 0-4-1-.9-.9-1.2-2.4-1.5-3.6-.9-3.1-1.7-6.2-2.4-9.4-.4-1.8-.8-3.8-1.1-5.7-.2-1.3-1.4-4.3-.4-5.3.7-.8 2.1-.7 3-.7 2.8 0 5.6 0 8.4.1 5 .1 10 .2 15 .4 1.2 0 2.5.1 3.7.1 1 0 2.3-.1 3.2.4 1.8.9 1.8 3.5 2.3 5.2 1.5 5.4 2.6 10.5 3.5 15.5.6 2.2 1.2 4.4-1.5 4.9z" fill="#191717" data-color="2"></path>
        <path d="M49 147c-.4.6-.8 1.2-1.2 1.7-.3.5-.6.9-.9 1.4-.3-.2-.5-.5-.8-.7l-.1-.1c.5-.8 1.1-1.6 1.6-2.4.2-.2.3-.5.5-.7.2.2.6.5.9.8z" fill="#191717" data-color="2"></path>
        <path d="M64.8 162c-.7.8-1.3 1.7-2 2.5-.3-.3-.6-.5-.8-.8.7-.8 1.3-1.7 2-2.5.3-.5 1.2.3.8.8z" fill="#191717" data-color="2"></path>
        <path d="M90.3 161.9c.1 1.2.5 2.4.7 3.6-.5 0-1 0-1.4.1-.1-1.2-.3-2.4-.4-3.5.3-.1.7-.2 1.1-.2z" fill="#191717" data-color="2"></path>
        <path d="M149.4 64.7c0 2-.3 4.1-1.7 5.7-.6.7-1.4 1.2-2.2 1.5-1 .3-2 .1-3-.1-1.9-.4-4.1-.6-5.7-1.9-1.7-1.3-2.3-3.4-2.5-5.5-.2-2.5-.1-5 .1-7.5.1-1.2.1-2.5.1-3.7 0-.6 0-1.1-.3-1.6-.1-.3-.3-.5-.2-.8.1-.2.2-.3.4-.2.3.1.3.3.3.4.1.1.3.5.3.5.1.2.1.4.2.6 0 .2.1.4.1.6.1-.2.2-.3.2-.4.5-.8 1.3-1.2 2.2-1.4 2.2-.4 4.1 1.1 5.4 2.7.7.9 1.3 1.8 2 2.6.7.9 1.5 1.8 2.3 2.7.7.8 1.4 1.6 1.8 2.6.2 1.1.2 2.2.2 3.2z" fill="#191717" data-color="2"></path>
        <path d="M138.3 55.3c-.3 1.4-1.4 2.4-2.8 2.6-1.4.2-3-.5-3.5-1.9-.3-.8 0-1.6.5-2.3.2-.3.4-.5.7-.7.2-.1.4-.3.6-.4.4-.2.9-.3 1.3-.3.5-.1.9-.1 1.4-.1 1.4.1 2 1.8 1.8 3.1z" fill="#FFFFFF" data-color="1"></path>
        <path d="M75.2 103.2c-.6 1.8-2.8 2.2-4.4 1.5-.8-.4-1.4-1-1.6-1.8-.3-.6-.4-1.2-.3-1.8.1-.8.8-1.5 1.6-1.8.8-.2 1.6-.2 2.4.1.8.3 1.5.7 1.9 1.5.5.6.6 1.5.4 2.3z" fill="#9FDFFF" data-color="4"></path>
        <path d="M97.7 113.8c0-.2-.2-.3-.3-.4h-.3c-.3.1-.3.2-.3.2-.1.1-.1.1-.1.2s-.1.1-.1.2v.5c0 .1.1.1.1.2l.1.1h.2c.1 0 .2 0 .2-.1.1-.1.2-.1.3-.2.1-.1.1-.1.1-.2 0 0 0-.1.1-.2v-.3z" fill="#9FDFFF" data-color="4"></path>
        <path d="M98.7 112.8c-.5 0-.5.8.1.8.5 0 .4-.8-.1-.8z" fill="#9FDFFF" data-color="4"></path>
        <path d="M104 110c-.1-.2-.2-.2-.4-.2s-.3.1-.5.2c-.1.1-.2.1-.3.2l-.6.3c-.4.2-.8.5-1.1.7-.2.1-.3.4-.1.6.1.2.4.2.6.1.4-.2.7-.5 1.1-.7l.6-.3c.1-.1.2-.1.3-.2.1-.1.3-.1.3-.2.1-.2.1-.4.1-.5z" fill="#9FDFFF" data-color="4"></path>
        <path d="M107.4 107.9s0-.1-.1-.1c-.1-.1-.1-.1-.2-.1-.2 0-.4 0-.5.2-.1.1-.1.1-.1.2-.1.1-.1.2-.1.3v.2c0 .1 0 .1.1.2l.1.1s.1 0 .1.1h.2c.1 0 .1 0 .2-.1s.2-.1.2-.2l.1-.1c.1-.1.1-.2.1-.2-.1-.2 0-.3-.1-.5 0 .1 0 0 0 0z" fill="#9FDFFF" data-color="4"></path>
        <path d="M109.4 106.6s0-.1-.1-.1l-.1-.1c-.1 0-.2-.1-.3 0 0 0-.1 0-.1.1l-.1.1c-.2.4-.3.6-.3.7 0 .1 0 .1.1.2l.1.1s.1 0 .1.1h.2c.1 0 .1 0 .2-.1l.1-.1c.1-.1.1-.1.1-.2 0 0 0-.1.1-.2v-.5z" fill="#9FDFFF" data-color="4"></path>
        <path d="M132.6 94.1c-.2-.2-.5-.2-.7-.2h-2.4c-1 0-2.1 0-3.1.3-.4.1-.2.7.1.7 1 .1 2-.1 3.1-.1h2.3c.3 0 .5.1.8-.1.1-.2.1-.5-.1-.6z" fill="#FFFFFF" data-color="1"></path>
        <path d="M137.6 79.9c-1.2 2.4-2.2 4.8-3.2 7.2-.9 2.4-1.9 4.8-2.5 7.3-.1.4.5.6.7.2 1-2.4 1.8-4.8 2.7-7.2 1-2.4 2-4.8 3.1-7.1.2-.5-.5-.9-.8-.4z" fill="#FFFFFF" data-color="1"></path>
        <path d="M116.3 133.9h-.9c-.1-.5-.4-1.1-.6-1.6-1-1.8-2-3.5-2.1-5.6 0-.4.5-.5.6-.1.3 1.1.5 2.2 1 3.2s1.2 1.9 1.6 2.9c.1.4.2.8.4 1.2z" fill="#FFFFFF" data-color="1"></path>
        <path d="M40.4 157.3c-.2-.7-.4-1.5-.6-2.2-.1-.3-.1-.7-.2-1h.9c.1.3.1.5.2.8.2.7.4 1.5.6 2.2.2.5-.7.8-.9.2z" fill="#FFFFFF" data-color="1"></path>
        <path d="M44.5 157c-.3.1-.7.1-.8-.2-.3-.5-.5-1.1-.8-1.6-.2-.5-.5-1-.7-1.5.3-.2.5-.4.8-.6.2.2.4.4.5.7.5.8 1 1.6 1.4 2.4 0 .3-.2.7-.4.8z" fill="#FFFFFF" data-color="1"></path>
        <path d="M48 154.8c-.2.3-.6.4-.9.2-.4-.2-.8-.6-1.1-1-.3-.4-.7-.7-1-1.1-.3-.4-.5-.8-.8-1.1.1-.3.3-.6.5-.8.6.6 1.2 1.3 1.9 2 .3.3.6.6 1 .9.3.2.6.6.4.9z" fill="#FFFFFF" data-color="1"></path>
        <path d="M90.1 175.6c-.1.1-.3.2-.5.2-.1 0-.3-.1-.4-.2-.1-.1-.2-.1-.3-.2-.2-.1-.3-.3-.5-.4-.4-.3-.7-.5-1-.8-.3-.2-.6-.5-.9-.7.2-.2.5-.4.7-.6.1 0 .2.1.2.1.5.3.9.6 1.4.9.2.2.4.3.7.5.2.2.5.3.6.6.1.3.1.5 0 .6z" fill="#FFFFFF" data-color="1"></path>
        <path d="M93 173c-.4.3-1 0-1.5-.2l-1.2-.6c-.5-.3-1.1-.5-1.6-.6.2-.2.4-.5.5-.7.4.1.8.2 1.3.3.4.1.8.3 1.2.5.2.1.3.2.5.2.2.1.5 0 .7.1.3.3.4.8.1 1z" fill="#FFFFFF" data-color="1"></path>
        <path d="M93.6 169.4c-.4.2-.9.1-1.4.1h-2.5v-.2c0-.2.1-.4.1-.6.3 0 .7 0 1-.1.4 0 .9-.1 1.3-.1s.9-.1 1.3 0c.4.3.5.7.2.9z" fill="#FFFFFF" data-color="1"></path>
        <path d="M91.9 85.2c-.1-.5-.3-.9-.4-1.4-.4-.9-.8-1.9-1.4-2.6-.2-.3-.5-.4-.8-.2-.3.2-.4.5-.3.8.3.9.8 1.8 1.1 2.6.2.4.4.9.7 1.3.2.4.4.8.7 1.2.2.4 1 .2.9-.3-.2-.4-.4-.9-.5-1.4z" fill="#FCDC24" data-color="3"></path>
        <path d="M96 79.4c-.3.1-.5.3-.5.5-.3.9-.4 1.8-.5 2.8-.1.5-.1 1-.1 1.5s-.1.9-.1 1.4c0 .5.7.6.9.2.2-.4.2-.9.4-1.3.2-.5.3-1 .4-1.5.2-1 .4-1.9.3-2.9 0-.5-.4-.8-.8-.7z" fill="#FCDC24" data-color="3"></path>
        <path d="M100.6 83c0-.2-.1-.3-.3-.4-.1-.1-.2-.1-.3-.1h-.1c-.4-.1-1 .2-1.3.5-.3.3-.6.7-.8 1.1-.1.2-.2.4-.2.5-.1.2-.2.5-.2.7-.1.4-.2.8-.2 1.3 0 .4.6.6.8.3.1-.2.2-.3.3-.5 0 0 0-.1.1-.1.1-.1.2-.3.2-.4.2-.2.3-.4.3-.5 0-.1.1-.1.1-.1.1-.1.2-.2.2-.4.1-.2.2-.3.3-.5 0-.1.1-.2.2-.3l.1-.1c.1-.1.1-.2.1-.2.1-.1.1-.2.1-.2 0 .1.1-.1.1-.1 0-.1.1-.1.1-.1.2-.1.4-.2.4-.4z" fill="#FCDC24" data-color="3"></path>
        <path d="M72.7 58c-.2-.1-.5-.1-.7-.2.9-2.7 1.2-5.6.6-8.5-.1-.4-.8-.3-.7.1.4 2.7 0 5.6-1 8.2-1.4-.1-2.9 0-4.2.4-1.8.6-3.9 1.9-4.4 3.8-.5 1.7.5 3.7 2.4 3.8 2.1.1 3.8-1.9 4.9-3.3.8-1 1.4-2 1.9-3.1.5.1 1 .2 1.5.4 3.5 1.2 6 4.2 7.4 7.5 1.9 4.4 1.8 9 2.2 13.7 0 .4.6.5.7 0 1.2-8.4-1-20.1-10.6-22.8zm-2.9 1.8c-.8 1.5-2 2.9-3.3 4-.7.5-1.8 1.1-2.6.4-.6-.5-.7-1.5-.4-2.2.7-1.6 2.8-2.5 4.4-2.8.8-.1 1.5-.2 2.3-.1-.1.2-.2.5-.4.7z" fill="#3BA7FF" data-color="5"></path>
    </g>
</svg>
